<?xml version="1.0" encoding="utf-8"?><svg version="1.1" id="Layer_1" xmlns="http://www.w3.org/2000/svg" xmlns:xlink="http://www.w3.org/1999/xlink" x="0px" y="0px" viewBox="0 0 103.19 122.88" style="enable-background:new 0 0 103.19 122.88" xml:space="preserve"><style type="text/css">.st0{fill-rule:evenodd;clip-rule:evenodd;}</style><g><path class="st0" d="M17.16,0h82.72c1.82,0,3.31,1.49,3.31,3.31v92.32c-0.15,2.58-3.48,2.64-7.08,2.48H15.94 c-4.98,0-9.05,4.07-9.05,9.05c0,4.98,4.07,9.05,9.05,9.05l80.17,0v-9.63l7.08,0v12.24c0,2.23-1.82,4.05-4.05,4.05l-82.85,0 C7.33,122.88,0,115.55,0,106.59V17.16C0,7.72,7.72,0,17.16,0L17.16,0L17.16,0z M70.48,69.34c-2.32,1.5-3.85,2.43-4.58,2.77 c-3.44,1.61-7.09,2.41-10.92,2.41c-7.1,0-13.15-2.51-18.15-7.51c-5.01-5.01-7.5-11.05-7.5-18.15c0-7.15,2.51-13.21,7.54-18.19 c5.03-4.98,11.14-7.48,18.33-7.48c5.29,0,10.39,1.72,15.29,5.15l-8.62-1.74c-6.18,0-11.44,2.17-15.8,6.51 c-4.34,4.34-6.52,9.6-6.52,15.75c0,6.11,2.17,11.35,6.5,15.72c4.32,4.37,9.52,6.54,15.59,6.54L70.48,69.34L70.48,69.34z M60.7,45.91h7.46l2.33-7.09l2.28,7.09h7.47l-6.04,4.37l2.28,7.12l-6-4.38l-6.05,4.38l2.3-7.12L60.7,45.91L60.7,45.91z"/></g></svg>